<?xml version="1.0" standalone="no"?>
<!DOCTYPE svg PUBLIC "-//W3C//DTD SVG 20010904//EN"
 "http://www.w3.org/TR/2001/REC-SVG-20010904/DTD/svg10.dtd">
<svg version="1.0" xmlns="http://www.w3.org/2000/svg"
 width="2400.000000pt" height="2400.000000pt" viewBox="0 0 2400.000000 2400.000000"
 preserveAspectRatio="xMidYMid meet">

<g transform="translate(0.000000,2400.000000) scale(0.100000,-0.100000)"
fill="#000000" stroke="none">
<path d="M11580 22934 c-851 -46 -1466 -136 -2185 -319 -2239 -569 -4228
-1857 -5680 -3680 -277 -347 -586 -794 -807 -1165 -512 -862 -889 -1757 -1142
-2707 -519 -1953 -461 -4058 164 -5978 787 -2413 2423 -4473 4601 -5792 214
-130 487 -282 662 -369 l138 -69 14 -50 c8 -27 39 -167 69 -310 68 -318 104
-448 162 -587 37 -87 50 -107 70 -112 14 -4 30 -3 37 1 7 4 168 141 359 305
l348 299 142 -50 c664 -235 1410 -409 2139 -500 466 -59 829 -81 1329 -81 483
0 859 22 1285 75 l190 24 385 -384 c248 -247 400 -390 427 -404 81 -41 86 -38
199 122 176 247 347 517 558 884 l87 151 157 51 c481 156 933 343 1422 587
440 220 731 388 1125 649 2224 1476 3813 3728 4445 6300 325 1321 391 2709
194 4065 -262 1802 -1003 3532 -2133 4975 -414 530 -937 1077 -1441 1511
-1346 1158 -2953 1959 -4670 2328 -484 104 -1005 177 -1540 216 -142 11 -982
21 -1110 14z m950 -284 c874 -48 1678 -190 2498 -441 1848 -567 3517 -1663
4791 -3147 1907 -2221 2774 -5112 2405 -8022 -142 -1121 -472 -2215 -975
-3230 -428 -865 -926 -1602 -1573 -2330 -155 -174 -632 -652 -806 -806 -922
-820 -1939 -1451 -3060 -1899 -204 -82 -462 -176 -468 -170 -5 4 217 390 357
620 260 428 502 760 764 1047 l79 87 -17 88 c-67 340 -201 630 -593 1282 -143
238 -285 490 -344 608 -99 199 -100 202 -88 240 16 50 36 72 87 95 l42 19 53
-27 c103 -52 162 -98 460 -358 264 -229 450 -309 649 -279 84 13 123 37 127
79 2 25 -6 36 -59 79 -132 107 -245 264 -295 411 -24 67 -28 95 -28 184 0 94
4 116 37 215 63 188 105 238 218 256 127 21 225 -5 287 -76 34 -38 34 -41 32
-146 l-1 -66 47 -7 c80 -11 178 -7 232 9 112 34 159 116 150 266 -4 66 -10 86
-39 134 -44 73 -126 158 -212 219 -37 26 -165 98 -285 160 -119 61 -243 128
-274 149 -81 54 -175 159 -211 235 -28 61 -30 69 -24 157 3 51 10 103 17 114
10 20 16 17 113 -71 247 -224 386 -313 561 -358 93 -24 206 -26 291 -5 33 8
74 14 91 15 52 0 185 38 261 74 123 59 222 133 359 270 127 128 261 283 252
292 -9 8 -162 -17 -338 -56 -208 -46 -305 -60 -408 -60 -153 1 -276 42 -387
130 -176 140 -303 341 -424 672 -28 76 -51 149 -51 163 0 14 9 44 20 65 19 38
23 40 65 40 25 0 45 -4 45 -9 0 -5 41 -70 90 -144 97 -146 229 -294 334 -374
108 -81 308 -163 402 -163 60 0 359 283 662 628 78 89 142 163 142 165 0 1
-44 -19 -97 -45 -176 -84 -325 -98 -417 -36 -113 74 -213 227 -251 381 -34
139 -38 368 -7 399 4 4 127 30 273 57 459 87 599 142 749 291 118 119 164 247
164 460 -1 139 -20 238 -74 379 -28 73 -38 86 -97 135 -37 31 -103 81 -147
112 -268 189 -351 267 -409 383 -58 116 -63 172 -42 494 19 296 17 441 -10
542 -47 177 -134 281 -314 376 -483 252 -854 621 -1083 1075 l-70 140 11 53
c16 73 13 204 -5 281 -18 79 -79 210 -167 357 -80 134 -139 250 -161 317 -24
70 -37 183 -28 246 l8 55 -59 65 c-169 187 -275 402 -447 905 -119 349 -174
494 -240 625 -109 217 -252 392 -415 508 -87 62 -108 71 -252 116 -118 37
-261 108 -478 239 -290 174 -355 209 -560 298 -401 172 -751 264 -1185 311
-160 17 -738 17 -915 0 -334 -32 -649 -79 -1025 -153 -347 -68 -962 -208
-1081 -245 -571 -181 -1006 -545 -1376 -1149 -126 -206 -241 -425 -427 -816
-377 -793 -527 -1062 -750 -1344 -142 -179 -410 -437 -469 -450 -12 -2 -103
-18 -202 -34 -197 -32 -297 -62 -382 -113 -90 -53 -102 -99 -95 -345 2 -77 5
-94 20 -102 27 -14 85 17 167 89 39 34 89 73 113 87 l43 26 157 -27 c214 -36
315 -46 464 -46 165 0 325 23 453 65 129 42 204 80 332 167 226 154 279 262
319 644 9 87 21 165 27 172 16 20 63 42 88 42 48 0 59 -25 59 -135 0 -228 -74
-480 -193 -655 -46 -67 -144 -166 -213 -216 -79 -56 -263 -145 -382 -184 -269
-87 -559 -108 -901 -64 -62 8 -115 13 -116 12 -1 -2 -16 -24 -33 -49 -43 -64
-127 -138 -200 -177 -111 -59 -228 -82 -480 -92 l-223 -9 -67 -33 c-85 -42
-180 -131 -219 -205 -27 -52 -31 -70 -37 -178 -3 -66 -15 -224 -26 -350 -43
-496 -14 -743 112 -960 50 -86 226 -267 238 -244 4 8 12 48 19 89 7 41 21 94
31 118 l20 44 102 -6 c57 -4 209 -16 338 -28 129 -11 318 -21 420 -21 164 0
229 5 373 29 38 7 38 7 31 -22 -14 -62 -86 -195 -152 -280 -38 -49 -167 -183
-286 -298 -294 -283 -384 -408 -421 -581 -20 -97 -20 -112 22 -386 31 -208 37
-270 37 -419 1 -229 -23 -326 -115 -461 -73 -108 -147 -145 -275 -137 -144 9
-276 108 -437 327 -74 101 -76 102 -84 74 -4 -15 -8 -109 -8 -208 0 -137 4
-200 18 -265 48 -221 131 -376 274 -511 140 -132 284 -208 411 -217 73 -5 74
-5 122 -54 36 -37 71 -93 132 -211 113 -223 160 -268 309 -301 33 -7 101 -74
125 -124 13 -25 19 -58 19 -102 -1 -56 -7 -78 -46 -160 -25 -52 -90 -165 -144
-250 -54 -85 -111 -183 -127 -217 -28 -63 -28 -64 -14 -126 22 -96 67 -215
159 -422 46 -105 89 -205 97 -223 18 -46 22 -38 80 188 60 231 93 305 171 382
65 64 100 75 213 66 120 -10 218 -80 274 -197 l36 -74 -20 -36 c-178 -314
-185 -332 -192 -452 -8 -153 56 -313 218 -541 115 -162 394 -424 475 -444 26
-6 120 39 129 62 10 26 8 30 -47 67 -130 90 -201 189 -201 282 0 116 63 198
180 235 207 64 407 66 645 9 101 -24 95 -26 233 67 44 30 85 54 92 54 15 0 -6
-51 -82 -202 -112 -224 -270 -467 -619 -953 -389 -543 -554 -815 -680 -1124
-118 -290 -175 -590 -162 -849 l6 -112 -97 52 c-608 325 -1225 740 -1735 1166
-449 376 -932 854 -1303 1292 -2253 2659 -3001 6286 -1989 9635 372 1231 986
2397 1803 3425 250 315 472 562 786 875 364 364 689 646 1082 942 1644 1239
3580 1947 5639 2062 210 12 875 12 1085 1z m-1028 -4553 c130 -201 316 -362
548 -475 l95 -46 150 -8 c625 -34 1025 -237 1627 -826 l137 -135 78 5 c82 5
141 27 178 68 27 29 11 51 -50 66 -117 30 -254 123 -334 228 -24 31 -84 134
-133 229 -112 216 -199 347 -310 463 -126 132 -242 208 -389 258 -73 25 -73
25 -44 36 132 50 300 35 453 -41 108 -53 155 -101 351 -354 332 -429 459 -553
680 -664 53 -26 137 -59 185 -71 l89 -24 -7 -136 c-8 -170 -25 -322 -76 -660
-83 -557 -95 -689 -87 -978 8 -306 50 -525 122 -638 49 -75 135 -247 173 -344
147 -373 201 -769 188 -1390 -17 -851 -18 -1129 -7 -1293 21 -291 65 -541 136
-766 34 -107 36 -110 112 -189 82 -84 115 -106 176 -117 33 -6 38 -4 48 18 18
40 5 66 -79 161 -107 120 -141 178 -153 262 -17 117 12 288 56 324 16 13 17
12 35 -115 15 -101 53 -231 86 -298 98 -195 295 -363 440 -375 50 -4 54 -3 54
17 0 12 -9 39 -20 61 -11 22 -20 49 -20 60 0 34 28 79 61 96 61 31 160 -12
208 -90 69 -111 34 -272 -69 -325 -102 -53 -215 -27 -385 88 -78 53 -102 53
-145 -1 -19 -24 -61 -72 -95 -107 -135 -143 -188 -152 -365 -66 -62 31 -116
52 -121 48 -11 -12 -90 -267 -153 -494 -69 -248 -139 -550 -276 -1194 -173
-812 -171 -802 -236 -918 -270 -485 -692 -909 -1210 -1217 -239 -142 -527
-277 -779 -365 -60 -21 -115 -44 -121 -52 -13 -15 -40 -17 -49 -3 -4 6 17 36
45 67 103 113 271 351 355 506 32 58 36 73 31 110 -3 23 -9 65 -12 93 l-6 51
68 46 c100 66 238 183 425 360 90 85 191 176 223 201 372 289 691 693 917
1161 218 453 360 975 428 1580 27 232 27 237 0 233 -20 -3 -26 -22 -61 -173
-245 -1062 -633 -1820 -1232 -2403 -201 -195 -381 -336 -646 -506 -58 -37
-126 -83 -153 -101 -67 -48 -147 -75 -218 -75 -114 0 -227 54 -439 210 -150
111 -275 188 -334 205 -96 29 -239 12 -298 -34 -21 -17 -27 -34 -37 -106 -11
-77 -10 -90 4 -112 9 -13 22 -26 30 -29 26 -10 87 17 104 47 19 35 38 37 50 6
5 -12 12 -108 16 -212 8 -207 -2 -280 -47 -353 -30 -48 -36 -30 -44 129 -7
147 -26 214 -72 249 -54 43 -91 10 -117 -103 -19 -83 -37 -117 -64 -117 -28 0
-31 18 -31 160 0 145 -11 213 -47 284 -49 96 -169 196 -236 196 -52 0 -53 -2
-112 -265 -21 -93 -52 -139 -108 -158 -65 -22 -100 -5 -116 56 -6 25 -11 65
-11 89 0 40 5 47 64 103 71 67 88 107 128 287 25 117 33 422 21 750 -10 254
-5 239 -88 278 -26 12 -47 32 -60 57 -28 53 -54 51 -82 -7 -44 -88 -54 -155
-63 -400 -5 -151 -14 -259 -24 -303 -43 -186 -160 -309 -348 -367 -100 -31
-181 -89 -319 -231 l-126 -129 -63 67 c-117 125 -205 280 -268 473 -43 131
-62 212 -127 530 -80 396 -132 576 -214 738 -28 55 -29 62 -33 234 l-3 178 25
-83 c32 -101 87 -207 140 -268 50 -59 102 -74 234 -67 72 4 113 13 196 43 79
29 121 38 170 39 73 1 123 -20 325 -133 125 -70 208 -99 310 -108 121 -10 264
41 326 117 24 28 29 43 27 75 l-3 40 -185 6 c-115 3 -196 10 -215 18 -48 20
-91 57 -105 91 -11 28 -11 34 7 58 28 38 89 70 148 77 68 9 223 -19 300 -53
91 -41 181 -38 355 13 184 53 275 55 370 8 109 -55 163 -64 430 -74 271 -11
396 -28 421 -58 8 -10 37 -58 65 -107 59 -107 160 -214 230 -245 68 -31 164
-35 239 -12 54 17 64 24 97 73 47 69 91 180 115 290 14 69 18 130 18 316 0
218 -1 233 -20 254 -16 18 -27 21 -60 17 -56 -8 -71 -32 -80 -124 -13 -156
-47 -261 -105 -326 -59 -68 -75 -59 -397 221 -111 97 -129 117 -125 138 8 42
50 31 123 -32 35 -31 88 -73 118 -93 47 -31 63 -36 125 -39 61 -3 75 -1 98 18
33 26 50 83 50 167 1 83 -23 125 -77 136 -143 31 -219 72 -362 195 -198 170
-230 194 -312 235 -81 40 -88 42 -177 42 -106 0 -127 -11 -145 -79 -20 -76
-57 -93 -133 -61 -19 8 -86 22 -148 30 -76 10 -121 21 -138 33 -40 30 -80 117
-80 173 0 45 3 52 54 102 30 30 57 65 60 78 3 13 2 60 -2 104 -11 107 0 156
44 195 19 16 40 30 47 30 23 -1 92 -38 147 -79 76 -58 113 -67 182 -47 44 12
61 24 82 54 50 72 58 134 21 158 -24 15 -27 15 -72 -15 -25 -17 -55 -31 -66
-31 -11 0 -54 22 -96 49 -100 63 -136 74 -230 69 -136 -8 -247 -89 -313 -227
-44 -93 -54 -92 -176 7 -157 127 -259 229 -321 322 -52 78 -59 95 -71 170 -22
138 -1 294 56 421 23 52 30 58 70 69 65 19 69 28 56 117 -42 267 -36 551 19
983 17 129 43 336 59 458 61 471 63 770 6 867 -25 42 -93 95 -167 130 -28 13
-42 32 -71 94 -70 148 -168 252 -308 325 -144 76 -293 106 -675 136 -143 12
-268 23 -279 27 -16 5 -18 13 -14 77 9 137 73 235 264 406 l124 111 0 53 c0
143 53 524 81 583 29 59 82 103 199 164 99 50 103 54 127 106 21 44 24 66 21
116 -5 81 -33 137 -116 232 -185 212 -215 259 -215 335 0 117 146 266 302 306
55 14 75 14 146 3 239 -35 508 23 743 160 204 119 431 339 580 564 25 37 48
67 51 66 3 0 27 -33 53 -72z m-1919 -3801 c135 -35 450 -153 461 -174 5 -9 42
-51 81 -92 75 -80 115 -131 115 -149 0 -6 -11 -13 -24 -17 -17 -4 -51 9 -120
45 -95 50 -119 57 -163 45 -27 -8 -39 -40 -22 -60 7 -9 51 -42 99 -74 94 -65
118 -92 154 -173 28 -64 60 -89 153 -121 114 -40 121 -44 139 -99 38 -114 5
-217 -140 -436 l-83 -126 -6 -240 c-9 -351 -53 -717 -144 -1185 -58 -305 -59
-300 112 -515 89 -111 135 -188 135 -226 0 -28 -78 -193 -119 -253 -38 -55
-99 -93 -181 -112 -253 -59 -499 -264 -639 -533 l-43 -84 -64 6 c-51 4 -87 16
-188 66 -69 33 -129 61 -134 61 -34 0 -59 -86 -69 -239 l-6 -95 -23 135 c-48
285 -100 491 -262 1039 -155 520 -219 788 -258 1075 -25 181 -25 564 -1 725
27 176 74 356 114 432 44 85 118 161 178 183 65 26 108 10 193 -69 129 -120
216 -189 268 -212 157 -69 342 -51 562 57 56 28 102 56 102 63 0 7 -6 21 -14
31 -17 24 -60 25 -235 7 -186 -20 -338 3 -464 70 -64 35 -101 83 -72 94 9 4
33 3 53 -1 20 -4 53 -8 72 -9 31 -1 35 2 38 27 2 16 -11 55 -32 98 -33 67 -36
78 -36 164 0 103 14 134 69 153 47 17 56 -3 42 -91 -9 -59 -9 -81 3 -119 31
-103 100 -184 205 -242 90 -49 202 -45 315 11 104 51 156 111 172 198 3 22 13
57 22 78 l15 38 29 -28 c38 -36 62 -83 83 -163 21 -81 41 -109 103 -143 47
-26 51 -26 101 -13 91 24 147 102 122 169 -8 20 -35 39 -103 73 -124 62 -150
83 -182 147 -35 73 -119 150 -208 192 -79 37 -144 56 -367 110 -79 18 -149 39
-154 44 -14 14 17 47 67 73 54 27 129 33 252 18 119 -14 153 -6 173 37 17 37
4 45 -114 79 -92 27 -113 29 -265 29 -189 0 -269 -17 -395 -83 -78 -41 -210
-160 -241 -217 -19 -36 -33 -42 -64 -25 -33 18 -33 55 1 122 91 180 230 322
398 408 108 54 259 60 434 16z m79 -719 c20 -32 -68 -52 -107 -24 -17 13 -17
15 6 31 26 18 88 14 101 -7z m-234 -217 c25 -38 28 -59 8 -85 -13 -18 -15 -18
-40 -1 -39 25 -62 79 -48 111 9 20 15 23 34 16 13 -4 33 -23 46 -41z m282 -20
c0 -11 -4 -20 -10 -20 -5 0 -10 9 -10 20 0 11 5 20 10 20 6 0 10 -9 10 -20z
m1071 -3331 c11 -6 43 -57 70 -114 77 -160 134 -200 411 -289 211 -68 286
-121 338 -239 11 -25 25 -49 30 -52 15 -9 12 -25 -5 -25 -19 0 -168 76 -255
130 -83 52 -149 71 -248 72 -95 0 -203 -27 -301 -77 l-68 -34 -37 20 c-20 10
-63 39 -96 63 -114 84 -188 76 -435 -49 -112 -56 -190 -89 -228 -96 -33 -6
-61 -8 -64 -5 -3 3 12 25 34 49 22 24 67 83 101 133 89 130 86 127 207 168
183 62 320 134 406 214 41 39 84 86 94 106 22 41 20 40 46 25z m-3796 -444 c8
-51 -25 -178 -62 -248 -81 -149 -249 -268 -469 -332 -97 -28 -142 -31 -168
-12 -32 23 -6 52 61 66 137 30 271 81 332 126 105 77 207 233 261 399 24 73
35 74 45 1z m7908 -2192 c121 -495 292 -878 780 -1749 306 -547 422 -771 538
-1041 l48 -113 -108 -139 c-452 -579 -908 -1286 -1606 -2486 -109 -187 -205
-348 -213 -357 -8 -10 -23 -18 -32 -18 -9 0 -205 195 -437 433 -782 805 -1838
1850 -2558 2532 -115 110 -212 208 -213 218 -8 44 83 627 105 673 17 38 -11
31 373 90 749 115 1195 254 1674 523 642 360 1169 876 1512 1482 45 80 61 99
79 99 21 0 25 -11 58 -147z m-4963 -323 c-106 -209 -157 -450 -131 -619 14
-89 4 -107 -33 -59 -33 44 -55 107 -57 166 -3 60 70 335 112 419 27 56 97 133
121 133 5 0 -1 -18 -12 -40z m-563 -962 c199 -231 529 -405 999 -528 150 -39
172 -48 179 -70 3 -10 -1 -64 -10 -121 -55 -370 -226 -737 -507 -1089 -238
-297 -491 -537 -1138 -1080 -525 -440 -800 -695 -990 -920 -86 -100 -124 -130
-142 -112 -12 12 -153 598 -197 817 -48 242 -80 482 -88 670 l-6 140 113 195
c547 945 1028 1667 1505 2263 l109 135 57 -116 c38 -76 78 -141 116 -184z
m1569 -605 c12 -102 -4 -329 -41 -563 -19 -124 -38 -268 -42 -320 l-6 -96 191
-172 c448 -405 898 -852 1704 -1697 301 -314 482 -512 475 -516 -7 -4 -88 -14
-182 -23 -757 -72 -1490 -67 -2205 15 -549 63 -1084 168 -1615 316 -126 35
-499 151 -545 169 l-38 16 86 76 c618 545 1199 1096 1603 1519 333 348 326
340 339 398 6 27 31 171 55 319 67 411 105 582 133 604 8 6 30 12 48 12 32 0
33 -1 40 -57z"/>
<path d="M12018 22283 c-116 -3 -128 -5 -128 -22 0 -15 8 -18 40 -18 53 0 100
-21 111 -50 5 -13 11 -65 14 -116 9 -143 25 -660 22 -664 -2 -2 -170 189 -373
423 l-369 426 -35 -6 c-19 -3 -90 -6 -158 -6 -112 0 -123 -2 -120 -17 2 -13
17 -20 55 -24 58 -7 103 -32 149 -81 l32 -33 12 -355 c16 -486 16 -551 2 -577
-16 -30 -45 -44 -103 -52 -37 -5 -46 -9 -40 -19 12 -20 401 -6 401 14 0 9 -11
14 -27 14 -50 0 -103 20 -119 45 -18 27 -28 184 -39 600 -5 198 -4 237 7 225
7 -9 185 -213 396 -453 240 -274 390 -437 402 -437 16 0 17 8 14 83 -3 45 -11
283 -19 529 -13 390 -14 452 -1 482 17 40 39 54 101 62 28 4 45 12 45 20 0 11
-17 13 -72 12 -40 -1 -130 -4 -200 -5z"/>
<path d="M12485 22250 c-11 -18 4 -27 52 -33 56 -6 103 -50 103 -95 0 -15 -13
-224 -30 -465 -20 -291 -34 -448 -44 -471 -20 -48 -51 -66 -113 -66 -40 0 -53
-4 -53 -15 0 -10 10 -15 28 -15 15 0 110 -7 212 -15 241 -19 260 -19 260 0 0
10 -10 15 -31 15 -34 0 -64 13 -96 43 -20 18 -23 30 -23 96 0 121 58 873 69
902 15 41 49 59 108 59 40 0 53 4 53 15 0 19 -26 22 -250 35 -102 6 -197 13
-212 15 -15 2 -30 0 -33 -5z"/>
<path d="M10635 22196 c-137 -24 -180 -35 -180 -46 0 -12 13 -14 62 -12 55 3
65 1 87 -21 13 -13 29 -42 35 -63 17 -58 109 -598 116 -681 14 -145 -43 -241
-182 -310 -65 -32 -86 -37 -164 -41 -81 -4 -94 -2 -145 23 -69 34 -104 80
-139 183 -27 80 -135 668 -135 735 0 51 41 94 99 103 30 5 41 11 41 24 0 12
-6 17 -17 14 -10 -2 -121 -22 -247 -44 -126 -22 -231 -42 -234 -44 -2 -3 -1
-10 3 -16 5 -7 25 -9 59 -5 47 6 56 4 82 -18 40 -34 46 -56 105 -389 52 -298
77 -405 108 -467 39 -75 141 -155 225 -175 52 -13 202 -7 277 10 108 24 176
59 240 125 118 120 125 220 44 664 -57 314 -60 372 -25 410 14 14 44 31 67 38
45 12 59 38 21 36 -13 -1 -104 -15 -203 -33z"/>
<path d="M13160 22196 c0 -9 16 -22 37 -31 48 -20 73 -43 89 -82 8 -17 70
-265 138 -550 68 -285 130 -539 136 -565 9 -33 17 -48 29 -48 11 0 115 155
311 466 162 256 310 484 329 506 37 43 83 68 126 68 17 0 25 5 25 18 0 15 -24
22 -157 45 -87 15 -166 27 -175 27 -25 0 -23 -27 2 -35 11 -4 34 -18 50 -32
43 -35 40 -72 -12 -160 -117 -196 -404 -641 -409 -635 -13 14 -189 784 -189
826 0 58 24 80 90 80 39 0 50 3 50 16 0 12 -43 23 -217 54 -120 21 -225 41
-235 44 -12 3 -18 -1 -18 -12z"/>
<path d="M14617 21925 c-4 -8 10 -19 39 -30 61 -23 87 -59 80 -110 -6 -49
-291 -870 -312 -903 -25 -38 -57 -47 -116 -33 -35 8 -55 8 -62 1 -5 -5 -8 -11
-5 -13 2 -2 132 -48 289 -102 157 -54 347 -119 423 -146 l138 -48 94 119 c52
65 95 121 95 124 0 17 -39 1 -88 -38 -137 -106 -179 -109 -407 -31 -178 61
-197 75 -185 129 15 69 143 426 152 426 21 0 275 -93 306 -112 49 -30 63 -65
55 -137 -5 -49 -3 -61 8 -61 9 0 36 63 77 183 34 100 62 188 62 195 0 27 -26
10 -48 -32 -14 -25 -38 -51 -57 -62 -30 -16 -41 -17 -87 -7 -85 18 -298 94
-298 107 0 11 140 417 146 425 6 7 368 -124 399 -144 48 -33 67 -79 61 -152
-4 -47 -2 -62 9 -67 8 -3 16 -2 19 2 9 16 67 234 63 238 -2 2 -49 20 -103 38
-54 19 -244 84 -421 144 -239 82 -323 107 -326 97z"/>
<path d="M8290 21555 c-469 -188 -431 -171 -424 -189 5 -13 11 -13 46 0 73 26
108 18 137 -30 23 -37 339 -813 353 -867 14 -51 -10 -93 -67 -121 -47 -23 -63
-55 -22 -44 12 3 200 77 417 165 l395 160 -3 152 c-1 84 -4 154 -6 156 -2 2
-10 1 -18 -2 -10 -4 -17 -26 -21 -64 -13 -124 -62 -204 -153 -249 -69 -35
-293 -122 -313 -122 -10 0 -26 9 -35 19 -13 15 -186 420 -186 437 0 9 313 124
336 124 42 -1 70 -20 108 -72 21 -30 37 -44 44 -39 16 10 -130 376 -150 376
-15 0 -15 -3 -4 -66 12 -69 -11 -109 -82 -146 -66 -35 -271 -117 -276 -112 -4
4 -111 265 -154 375 l-20 51 184 72 c101 40 199 75 217 78 51 8 101 -19 142
-76 23 -32 41 -48 51 -44 8 3 14 9 14 14 0 19 -105 219 -115 219 -5 -1 -183
-70 -395 -155z"/>
<path d="M15786 21513 c-12 -13 -5 -22 38 -47 55 -32 73 -70 56 -123 -7 -21
-102 -215 -212 -430 -138 -271 -209 -400 -230 -418 -35 -29 -73 -32 -123 -8
-25 12 -38 14 -46 6 -13 -13 21 -33 258 -151 136 -69 183 -88 187 -77 3 9 -11
23 -39 40 -90 52 -88 77 30 314 52 105 98 191 102 191 5 0 30 -13 58 -28 l50
-27 52 -330 c28 -181 52 -331 52 -332 1 -2 64 -34 140 -73 103 -51 141 -66
144 -56 3 8 -14 31 -43 55 -73 62 -95 117 -129 321 -41 249 -55 349 -50 355 3
2 32 0 66 -5 110 -18 208 14 277 90 52 58 69 103 70 181 0 55 -5 77 -32 131
-37 75 -83 118 -201 185 -128 74 -468 243 -475 236z m432 -288 c31 -21 56 -50
75 -86 25 -47 28 -62 24 -114 -5 -70 -31 -126 -79 -172 -78 -75 -180 -86 -315
-34 -46 18 -85 36 -87 40 -3 4 45 104 105 223 l109 217 61 -21 c33 -11 81 -35
107 -53z"/>
<path d="M9410 21213 c-107 -30 -199 -58 -203 -63 -11 -10 22 -120 36 -120 28
1 412 118 412 126 -1 31 -29 114 -38 113 -7 0 -100 -25 -207 -56z"/>
<path d="M7358 21137 c-98 -56 -178 -108 -178 -116 0 -9 6 -11 23 -6 12 4 38
8 57 9 29 1 37 -4 48 -28 22 -44 3 -126 -128 -554 -19 -64 -24 -71 -35 -55
-45 67 -206 364 -211 390 -8 39 15 80 62 111 33 21 42 51 15 44 -11 -2 -408
-228 -420 -239 -3 -2 0 -8 6 -14 8 -8 20 -6 42 6 18 9 50 17 73 18 33 1 45 -4
67 -28 27 -31 443 -744 467 -802 28 -65 11 -104 -66 -155 -18 -11 -22 -19 -15
-27 8 -8 71 24 220 109 115 67 211 123 214 126 3 2 0 9 -6 15 -8 8 -19 6 -40
-4 -16 -9 -45 -18 -65 -22 -30 -6 -40 -3 -67 22 -25 23 -255 402 -248 409 6 6
604 -159 624 -171 31 -21 30 -62 -4 -97 -63 -66 -1 -42 217 83 124 72 232 134
240 139 11 6 12 12 4 20 -9 9 -25 8 -65 -4 -65 -20 -153 -20 -243 -1 -104 22
-650 166 -659 174 -4 4 -1 29 7 57 8 27 40 146 71 264 62 236 98 322 157 375
34 31 43 55 20 55 -4 0 -87 -46 -184 -103z"/>
<path d="M17012 20762 c-112 -40 -181 -131 -190 -251 -6 -87 13 -139 132 -380
100 -202 117 -256 97 -322 -37 -122 -165 -165 -293 -97 -75 40 -141 112 -168
186 -27 69 -23 158 9 242 12 30 21 56 21 56 0 1 -6 4 -14 7 -20 8 -233 -320
-218 -335 9 -9 16 -7 30 5 32 29 56 20 112 -40 133 -145 153 -164 228 -201 71
-34 82 -37 167 -37 78 0 97 4 147 28 67 33 112 80 146 155 21 47 24 64 20 134
-5 79 -7 85 -116 302 -61 121 -117 244 -123 272 -21 93 8 160 85 195 82 37
169 16 246 -61 93 -93 117 -218 67 -352 -23 -64 -24 -78 -5 -78 7 0 180 258
209 311 16 31 -3 46 -32 25 -39 -27 -57 -19 -106 47 -107 140 -198 198 -323
204 -56 3 -89 -1 -128 -15z"/>
<path d="M6303 20509 c-7 -7 -8 -21 0 -44 16 -52 -6 -78 -81 -93 -152 -31
-323 -165 -390 -304 -120 -247 -53 -548 165 -748 106 -97 260 -160 393 -160
121 0 267 63 374 161 133 122 172 224 167 442 -1 50 -3 57 -21 57 -19 0 -20
-7 -20 -89 0 -127 -25 -203 -93 -277 -219 -241 -504 -211 -727 77 -77 100
-141 222 -160 308 -18 75 -8 185 21 246 31 67 120 155 194 191 54 26 70 29
157 29 96 0 97 0 189 -48 51 -26 96 -44 100 -40 5 5 -43 67 -107 138 -153 173
-148 167 -161 154z"/>
<path d="M17842 20298 c-8 -8 0 -22 27 -49 50 -48 60 -88 32 -135 -36 -61
-537 -698 -575 -732 -46 -40 -69 -40 -130 -1 -34 21 -52 27 -59 20 -7 -7 -1
-18 18 -33 254 -200 371 -286 379 -278 7 7 -2 22 -26 45 -19 19 -41 49 -48 66
-12 27 -11 36 5 65 17 31 143 195 444 579 146 185 174 207 237 180 21 -9 46
-23 56 -32 14 -13 21 -14 30 -5 15 15 25 6 -198 180 -129 99 -185 137 -192
130z"/>
<path d="M18317 19758 c-108 -100 -118 -131 -25 -79 41 23 67 31 105 31 56 0
81 -15 191 -117 l64 -58 -325 -338 c-178 -186 -339 -349 -357 -362 -51 -38
-94 -32 -151 22 -20 19 -28 21 -36 11 -15 -18 330 -353 354 -344 14 6 12 11
-14 39 -43 45 -55 73 -48 109 5 21 75 100 239 270 127 133 281 293 342 357
l111 116 69 -63 c94 -87 116 -121 122 -186 4 -45 0 -62 -24 -105 -19 -36 -24
-55 -17 -62 7 -7 37 20 97 88 47 54 85 103 85 108 -1 10 -662 648 -676 652 -5
2 -52 -38 -106 -89z"/>
<path d="M5195 19555 c-143 -138 -176 -175 -163 -180 12 -5 29 3 53 24 37 33
87 41 125 21 34 -18 651 -660 667 -694 20 -44 12 -76 -33 -126 -30 -33 -34
-41 -20 -46 12 -5 53 29 149 122 73 70 152 147 177 171 33 32 41 46 33 54 -8
8 -21 4 -50 -19 -49 -39 -78 -47 -114 -32 -29 13 -608 603 -660 674 -41 55
-39 95 7 146 31 34 38 61 16 60 -4 -1 -88 -79 -187 -175z"/>
<path d="M4725 18971 c-100 -26 -174 -92 -407 -359 -117 -134 -158 -187 -153
-200 6 -15 8 -14 23 6 25 33 73 62 102 62 14 0 41 -10 62 -23 45 -27 670 -568
698 -604 30 -38 26 -91 -9 -140 -27 -37 -30 -53 -11 -53 4 0 81 84 170 186
117 134 160 188 152 196 -8 8 -24 0 -56 -30 -77 -71 -96 -64 -320 131 l-136
118 37 44 c30 36 44 45 69 45 17 0 154 -11 305 -25 151 -14 290 -25 310 -25
32 0 42 8 115 92 114 132 118 138 106 150 -6 6 -25 -2 -56 -26 -62 -47 -111
-60 -226 -58 -99 1 -467 36 -475 44 -3 3 6 35 20 72 60 159 7 308 -136 382
-37 19 -138 27 -184 15z m70 -175 c96 -44 153 -140 142 -241 -6 -63 -49 -149
-105 -213 l-37 -43 -180 157 c-99 86 -182 158 -183 159 -2 2 13 28 33 59 41
62 94 112 139 132 49 21 134 17 191 -10z"/>
<path d="M19656 18834 c-72 -73 23 -193 115 -144 29 16 51 67 44 101 -15 67
-109 93 -159 43z"/>
<path d="M19873 18615 c-89 -38 -62 -175 34 -175 46 0 93 46 93 90 0 44 -16
69 -55 86 -40 16 -32 17 -72 -1z"/>
<path d="M19230 18439 c-762 -205 -759 -205 -822 -157 -23 17 -39 23 -48 18
-10 -6 -11 -12 -4 -22 170 -220 218 -277 230 -267 9 8 7 20 -13 55 -29 52 -25
85 13 111 14 9 83 32 152 50 101 27 128 31 138 21 6 -7 69 -87 139 -177 l128
-165 -43 -80 c-106 -199 -142 -225 -221 -159 -19 16 -34 22 -40 16 -6 -6 42
-76 133 -191 95 -122 145 -179 152 -172 6 6 4 22 -7 45 -42 87 -39 94 311 714
138 244 248 450 245 457 -3 8 -13 13 -22 13 -9 -1 -198 -50 -421 -110z m77
-249 c-67 -121 -125 -219 -129 -217 -14 5 -239 299 -233 305 5 6 453 129 477
131 3 1 -48 -98 -115 -219z"/>
<path d="M3731 17758 c-151 -232 -240 -377 -236 -386 4 -12 17 -3 51 36 60 68
83 69 190 4 159 -97 711 -462 729 -483 26 -28 24 -87 -4 -135 -17 -29 -19 -39
-9 -45 7 -4 13 -7 14 -6 1 1 110 170 244 376 220 340 241 377 230 395 -7 12
-49 67 -93 124 -96 123 -116 123 -64 0 46 -109 52 -147 33 -211 -14 -49 -152
-274 -199 -324 -11 -13 -30 -23 -42 -23 -16 0 -377 223 -413 255 -2 2 38 65
88 140 119 178 146 195 249 156 42 -16 51 -16 55 -4 5 13 -42 46 -277 196 -72
46 -86 30 -27 -31 33 -35 40 -50 40 -83 0 -48 -11 -70 -107 -221 l-75 -117
-36 23 c-122 77 -338 218 -345 225 -7 7 177 297 216 339 49 53 109 65 188 37
35 -13 45 -13 56 -2 11 11 -6 24 -96 75 -60 34 -111 62 -114 62 -3 0 -114
-167 -246 -372z"/>
<path d="M20048 17759 c-77 -39 -118 -65 -118 -75 0 -12 6 -15 23 -9 106 32
170 25 216 -24 24 -26 133 -202 128 -207 -17 -16 -832 -478 -858 -485 -46 -14
-92 7 -121 57 -18 31 -48 47 -48 25 0 -7 234 -418 244 -428 1 -1 7 2 15 6 10
7 9 17 -8 49 -30 58 -27 98 7 130 27 26 831 494 849 495 4 0 32 -42 62 -93 83
-142 82 -215 -7 -296 -27 -25 -34 -36 -25 -45 8 -8 37 5 109 51 55 34 105 68
112 75 11 10 -27 84 -219 416 -128 222 -235 407 -238 411 -3 3 -59 -20 -123
-53z"/>
<path d="M3252 16998 c-45 -101 -82 -186 -82 -190 0 -22 32 -4 44 25 21 52 63
80 111 74 43 -5 543 -222 652 -283 134 -75 178 -152 171 -297 -7 -140 -64
-245 -166 -305 -65 -37 -146 -37 -262 2 -153 52 -632 273 -662 306 -32 35 -35
70 -12 125 13 31 13 39 2 46 -16 10 -7 27 -123 -235 -76 -172 -94 -220 -84
-227 10 -6 20 4 37 36 29 58 61 79 110 72 21 -2 171 -63 333 -135 353 -156
414 -176 510 -170 90 7 182 51 238 114 50 57 124 201 145 280 43 168 -3 315
-128 408 -66 49 -140 86 -426 213 -129 57 -252 115 -272 128 -48 32 -63 80
-43 139 18 51 18 56 2 56 -8 0 -49 -78 -95 -182z"/>
<path d="M20949 16295 c-3 -3 -1 -26 4 -53 12 -55 -2 -93 -43 -124 -26 -19
-824 -282 -888 -292 -53 -9 -95 20 -117 78 -16 43 -41 58 -39 25 3 -40 120
-369 131 -369 16 0 16 4 2 53 -14 53 -3 93 33 119 27 18 817 282 825 275 1 -2
-175 -166 -392 -366 -216 -199 -392 -368 -389 -375 3 -8 174 -31 507 -70 276
-32 517 -61 535 -65 28 -5 -24 -24 -335 -125 -439 -142 -468 -150 -505 -135
-29 12 -68 65 -68 92 0 20 -19 32 -31 20 -7 -7 133 -455 148 -472 2 -3 8 0 14
6 7 7 6 24 -2 55 -17 64 0 104 57 129 67 30 832 278 878 284 52 8 90 -18 117
-83 14 -32 23 -42 30 -35 8 8 -3 55 -38 165 l-49 153 -94 12 c-52 6 -261 30
-465 53 -203 22 -385 44 -403 48 l-33 7 365 339 c201 186 366 344 365 350 0 6
-21 76 -47 155 -43 131 -58 161 -73 146z"/>
<path d="M3265 15708 c-10 -30 -114 -388 -117 -405 -2 -10 4 -19 15 -21 9 -2
17 2 17 8 0 28 35 82 62 96 35 18 49 16 293 -54 164 -47 170 -50 176 -78 12
-54 9 -139 -6 -199 -67 -257 -333 -381 -647 -301 -192 49 -328 144 -401 281
-30 57 -32 66 -32 165 1 86 5 116 24 163 59 148 165 226 333 244 60 6 86 28
45 38 -56 13 -322 65 -334 65 -22 0 -15 -26 11 -40 42 -22 40 -39 -18 -125
-111 -167 -141 -262 -134 -425 4 -89 9 -116 36 -180 64 -150 189 -282 328
-346 96 -45 151 -57 264 -57 80 0 108 4 180 29 162 57 258 142 336 299 61 123
94 260 94 384 -1 89 -11 175 -22 187 -3 2 -81 27 -174 53 -292 85 -308 94
-302 175 2 33 -1 51 -9 53 -7 3 -15 -1 -18 -9z"/>
<path d="M20342 14451 c-10 -6 -7 -42 18 -177 16 -93 30 -172 30 -176 0 -5 7
-8 15 -8 11 0 15 13 15 53 0 40 5 59 20 75 27 29 66 28 215 -7 l119 -28 37
-214 c21 -118 38 -218 38 -224 1 -12 -180 -128 -234 -151 -52 -21 -80 -7 -106
52 -19 41 -47 57 -42 23 1 -8 18 -107 38 -220 19 -113 35 -209 35 -212 0 -4 6
-7 14 -7 8 0 16 17 20 46 8 60 34 101 89 143 25 18 247 162 493 320 318 203
450 293 452 307 3 18 -15 24 -185 63 -441 101 -900 210 -928 221 -76 29 -97
44 -118 86 -15 30 -26 41 -35 35z m748 -341 c124 -29 229 -56 233 -60 4 -4
-87 -68 -202 -143 l-210 -135 -10 51 c-6 29 -20 106 -31 172 -11 66 -23 133
-26 149 -5 22 -3 28 7 24 8 -3 115 -29 239 -58z"/>
<path d="M3065 14328 c-26 -114 -75 -393 -71 -403 2 -7 26 -16 53 -20 26 -3
52 -7 57 -8 5 -1 28 95 51 213 l42 215 -36 12 c-60 19 -90 16 -96 -9z"/>
<path d="M2256 13808 c-5 -14 -26 -314 -26 -365 0 -52 26 -42 32 12 7 62 30
93 75 101 39 7 743 -35 755 -45 4 -3 -191 -145 -433 -316 -242 -170 -448 -318
-458 -327 -17 -15 -28 -115 -36 -313 0 -5 7 -10 15 -10 9 0 17 13 21 35 9 55
45 115 89 150 l40 32 447 -31 c269 -19 456 -36 472 -44 37 -17 63 -73 55 -119
-5 -33 -3 -38 13 -38 18 0 20 13 31 173 15 217 15 227 -2 227 -9 0 -16 -17
-21 -47 -10 -68 -48 -103 -112 -103 -46 0 -731 47 -763 53 -8 1 31 34 85 73
55 39 226 160 380 269 154 109 327 232 385 273 100 71 130 97 130 113 0 4 -42
10 -92 13 -51 4 -284 20 -518 36 -234 16 -439 32 -457 36 -50 10 -76 45 -81
109 -4 54 -18 80 -26 53z"/>
<path d="M20977 13145 c-166 -33 -330 -158 -400 -306 -52 -109 -71 -216 -64
-364 7 -135 23 -206 72 -313 l34 -73 208 7 c239 8 284 1 308 -46 8 -16 15 -40
15 -55 0 -16 6 -25 15 -25 13 0 15 32 15 225 0 218 -1 225 -20 225 -16 0 -20
-7 -20 -37 0 -48 -19 -85 -50 -99 -15 -7 -116 -15 -241 -19 l-216 -7 -29 69
c-25 60 -29 80 -29 174 0 102 1 108 38 181 46 95 110 154 221 208 186 89 417
93 595 10 172 -81 249 -212 239 -402 -10 -158 -75 -253 -225 -325 -40 -20 -73
-41 -73 -49 0 -17 -6 -17 200 4 141 15 165 20 168 35 2 11 -3 17 -16 17 -11 0
-29 8 -40 18 l-21 17 25 80 c51 168 57 279 24 409 -28 111 -63 170 -155 261
-158 158 -364 222 -578 180z"/>
<path d="M2694 12359 c-150 -19 -257 -71 -359 -173 -112 -114 -165 -235 -165
-380 0 -155 49 -281 152 -392 138 -148 291 -202 516 -182 168 15 302 77 404
188 209 227 197 566 -27 779 -143 135 -312 188 -521 160z m351 -205 c115 -28
199 -93 247 -192 30 -60 33 -75 33 -152 -1 -105 -27 -163 -107 -235 -104 -94
-254 -143 -463 -152 -254 -10 -421 59 -491 205 -24 49 -28 70 -29 147 0 79 4
97 28 146 52 106 157 177 325 220 154 39 329 44 457 13z"/>
<path d="M20540 11888 c0 -2 -18 -131 -40 -288 -43 -309 -49 -435 -25 -539 60
-253 292 -421 579 -421 163 0 299 52 399 151 107 108 146 231 206 654 22 154
38 281 36 284 -12 12 -35 -12 -35 -37 0 -16 -10 -44 -23 -63 -21 -32 -27 -34
-84 -37 -61 -3 -832 98 -906 118 -65 19 -93 67 -80 144 4 29 2 36 -11 36 -9 0
-16 -1 -16 -2z m564 -412 c313 -44 451 -68 457 -77 26 -41 -2 -235 -46 -325
-78 -159 -277 -258 -484 -239 -166 15 -299 73 -385 166 -134 144 -155 305 -71
537 3 8 17 11 42 7 21 -3 240 -34 487 -69z"/>
<path d="M2291 10943 c0 -5 17 -84 38 -178 27 -123 41 -170 52 -170 10 0 16
16 19 52 3 31 13 60 25 73 18 20 27 22 85 17 61 -5 790 -134 797 -141 5 -4
-599 -434 -658 -469 -35 -20 -59 -27 -86 -25 -33 3 -39 8 -62 55 -18 36 -30
50 -39 44 -9 -6 -2 -56 33 -222 55 -258 52 -249 71 -242 9 3 14 20 14 52 0 54
24 98 72 133 18 14 237 170 486 348 249 177 451 327 449 333 -2 6 -10 14 -18
18 -8 5 -255 52 -549 105 -294 53 -551 102 -571 109 -54 19 -77 36 -106 78
-23 33 -54 50 -52 30z"/>
<path d="M20220 10200 c-68 -237 -120 -433 -117 -436 3 -3 58 -43 123 -89 94
-65 121 -80 127 -69 6 11 -8 32 -46 74 -79 85 -101 135 -95 218 6 76 81 338
105 365 9 9 23 17 31 17 13 0 452 -120 460 -125 5 -4 -79 -288 -94 -316 -7
-15 -26 -37 -41 -49 -24 -19 -37 -21 -90 -17 -54 4 -63 2 -63 -12 0 -13 41
-28 183 -69 100 -28 188 -52 195 -52 27 0 10 28 -29 45 -93 42 -100 98 -39
310 22 77 40 140 40 141 0 4 433 -125 438 -131 8 -8 -95 -362 -116 -399 -30
-51 -66 -70 -142 -74 -106 -6 -100 -26 17 -53 53 -12 110 -22 126 -23 l30 -1
123 425 c76 263 119 429 113 434 -12 13 -22 1 -43 -57 -22 -59 -44 -71 -115
-64 -53 5 -862 236 -902 257 -33 18 -42 49 -35 117 5 50 4 63 -7 63 -10 0 -51
-129 -137 -430z"/>
<path d="M3358 9782 c-27 -8 -48 -20 -48 -26 0 -16 125 -405 132 -412 8 -8
109 29 114 41 7 19 -124 410 -138 412 -7 1 -34 -6 -60 -15z"/>
<path d="M19920 9322 c-164 -369 -184 -426 -184 -527 -1 -62 4 -91 21 -128 54
-118 146 -182 258 -182 79 1 142 30 205 95 l50 51 0 -58 c1 -145 114 -256 260
-257 141 0 244 82 338 269 49 97 242 526 242 537 0 20 -32 5 -41 -19 -6 -16
-22 -40 -37 -55 -49 -52 -69 -46 -487 142 -148 66 -308 138 -354 158 -142 62
-174 109 -136 199 18 43 18 40 1 46 -10 4 -47 -70 -136 -271z m310 -172 c102
-45 187 -84 188 -86 7 -5 -20 -79 -59 -159 -75 -156 -164 -227 -284 -227 -147
0 -247 114 -231 265 7 67 54 185 106 264 34 51 34 52 64 39 17 -7 114 -50 216
-96z m501 -225 l177 -77 -15 -57 c-8 -31 -31 -87 -51 -124 -86 -165 -219 -226
-350 -161 -63 31 -101 78 -118 144 -17 66 1 144 67 278 l49 102 33 -13 c17 -8
111 -49 208 -92z"/>
<path d="M3521 9139 c-162 -42 -310 -145 -393 -273 -79 -122 -111 -302 -79
-436 38 -155 161 -308 303 -375 76 -36 185 -65 250 -65 83 0 194 30 297 81
222 109 351 303 351 524 0 200 -118 403 -288 493 -131 70 -297 89 -441 51z
m467 -169 c67 -35 114 -85 153 -160 20 -37 24 -60 24 -135 0 -111 -20 -157
-109 -252 -73 -79 -148 -131 -271 -189 -173 -82 -320 -103 -447 -64 -88 27
-138 73 -185 167 -34 69 -38 84 -37 152 0 91 30 162 100 240 81 90 264 199
424 253 75 25 97 28 185 25 92 -2 105 -6 163 -37z"/>
<path d="M19450 8238 c-40 -15 -74 -40 -125 -92 -208 -211 -246 -471 -93 -633
63 -66 138 -117 430 -292 130 -78 246 -153 257 -168 27 -33 27 -87 1 -136 -19
-35 -19 -38 -3 -44 9 -4 18 -2 20 3 2 5 48 83 102 174 71 119 96 168 89 177
-8 10 -17 3 -39 -27 -16 -21 -40 -47 -54 -56 -22 -15 -30 -15 -68 -2 -40 13
-464 262 -577 338 -128 87 -171 154 -172 269 -1 155 98 315 221 356 75 25 136
15 246 -38 113 -55 570 -330 607 -365 39 -36 45 -80 19 -130 -24 -47 -26 -62
-8 -62 20 0 269 423 254 432 -7 5 -18 -1 -27 -15 -8 -12 -27 -34 -42 -49 -53
-55 -86 -42 -393 146 -104 64 -241 143 -304 174 -109 55 -117 57 -200 59 -68
2 -97 -1 -141 -19z"/>
<path d="M4582 8031 c-10 -6 -7 -18 13 -52 34 -61 32 -91 -8 -130 -31 -29
-804 -538 -818 -539 -11 0 -110 158 -125 197 -7 21 -13 48 -14 61 0 36 28 94
66 133 27 28 32 38 22 46 -10 8 -40 -8 -120 -65 -59 -43 -107 -80 -108 -83 0
-5 504 -786 515 -797 2 -3 224 124 234 134 3 2 0 9 -5 14 -7 7 -22 5 -47 -5
-46 -19 -120 -19 -157 0 -32 17 -80 73 -134 159 -31 48 -35 61 -24 71 29 26
766 499 806 517 64 29 91 15 159 -81 2 -3 8 0 15 7 8 8 -23 63 -117 209 -149
231 -137 214 -153 204z"/>
<path d="M18726 7235 c-86 -101 -156 -189 -156 -195 0 -20 27 -9 60 25 70 72
98 62 317 -123 l142 -120 -37 -46 c-44 -55 -14 -53 -372 -26 -383 29 -328 41
-443 -96 -112 -131 -119 -164 -20 -95 87 61 130 66 398 47 121 -9 239 -18 261
-21 l41 -6 -25 -62 c-84 -204 45 -410 255 -409 84 1 156 34 235 109 104 99
400 455 388 467 -7 7 -21 -1 -48 -27 -52 -51 -91 -57 -145 -22 -64 43 -706
584 -717 605 -22 41 -5 117 34 149 16 13 13 31 -4 31 -5 0 -79 -83 -164 -185z
m599 -612 c96 -81 175 -152 175 -157 -1 -25 -89 -134 -133 -163 -61 -41 -119
-50 -189 -29 -145 42 -216 184 -165 331 21 61 106 178 124 171 7 -3 92 -72
188 -153z"/>
<path d="M5192 7143 c-8 -3 -3 -17 17 -46 41 -57 46 -85 22 -123 -19 -31 -731
-636 -755 -642 -12 -3 -131 140 -156 187 -7 14 -11 47 -8 82 3 48 10 66 37
100 24 29 30 44 23 51 -12 12 -34 -6 -155 -120 -58 -54 -58 -55 -39 -76 10
-11 148 -175 306 -363 176 -209 293 -340 300 -336 6 4 55 40 108 80 61 47 95
79 92 88 -4 10 -17 8 -61 -12 -44 -21 -66 -24 -111 -21 -55 5 -58 6 -125 79
-38 41 -77 86 -87 100 l-19 25 332 280 c373 314 405 340 442 354 32 12 79 -5
115 -43 26 -27 50 -35 50 -16 0 9 -307 380 -313 378 -1 0 -8 -3 -15 -6z"/>
<path d="M17910 6266 c-210 -59 -439 -270 -515 -478 l-17 -47 137 -153 c191
-212 197 -223 149 -293 -69 -102 30 -30 274 198 62 57 59 86 -4 43 -41 -28
-86 -33 -121 -13 -30 17 -292 309 -293 326 0 28 65 133 113 181 28 28 80 65
116 83 61 30 72 32 171 32 84 0 117 -5 164 -23 96 -35 165 -82 251 -167 136
-136 198 -267 199 -421 0 -83 -2 -96 -33 -158 -63 -128 -195 -227 -322 -241
-65 -8 -152 11 -228 50 -36 18 -52 22 -57 13 -9 -13 245 -260 261 -254 10 3 9
12 -1 66 -5 23 2 28 113 79 107 50 126 63 204 140 132 131 183 250 181 426 -1
112 -36 242 -92 336 -78 132 -237 249 -378 278 -69 14 -215 13 -272 -3z"/>
<path d="M5705 6260 c-125 -25 -238 -93 -341 -203 -119 -128 -174 -258 -174
-414 0 -173 49 -291 166 -402 120 -114 236 -161 399 -161 189 0 335 72 472
234 174 204 201 492 66 696 -79 119 -227 222 -361 249 -60 12 -167 13 -227 1z
m358 -123 c33 -15 79 -48 106 -76 162 -167 103 -426 -157 -690 -158 -160 -338
-225 -486 -175 -65 22 -158 110 -193 182 -36 73 -37 166 -5 263 49 143 229
367 367 455 126 79 253 94 368 41z"/>
<path d="M12484 14639 c-45 -4 -119 -20 -164 -36 -78 -26 -84 -31 -109 -75
l-26 -47 25 -25 c50 -49 339 -96 592 -96 171 0 280 11 491 46 l158 27 93 -99
c51 -54 175 -191 276 -304 229 -257 398 -432 409 -425 12 7 -11 83 -49 162
-42 92 -109 191 -230 343 -145 183 -201 262 -250 353 -50 93 -88 117 -192 125
-80 6 -118 -3 -294 -68 -134 -50 -192 -61 -198 -37 -2 6 -8 30 -12 51 -11 46
-30 55 -184 85 -118 23 -230 30 -336 20z"/>
<path d="M11401 14581 c-10 -7 -12 -25 -6 -82 24 -257 104 -433 260 -576 69
-62 75 -72 85 -122 5 -29 10 -76 10 -102 0 -45 2 -49 23 -49 19 0 35 17 77 86
66 108 109 157 163 182 37 17 223 51 396 71 38 4 58 12 67 26 23 35 3 49 -82
56 -71 5 -80 9 -106 38 -20 23 -28 42 -28 69 0 41 -14 62 -41 62 -9 0 -58 -32
-108 -71 -167 -129 -247 -153 -348 -104 -127 62 -235 210 -304 416 -35 105
-38 112 -58 100z"/>
<path d="M12580 13760 c-280 -73 -445 -178 -541 -347 -32 -56 -19 -71 40 -47
48 19 106 12 120 -15 14 -25 -5 -99 -34 -137 -30 -39 -81 -64 -132 -64 -57 0
-112 -18 -127 -43 -8 -12 -17 -41 -21 -65 -8 -50 9 -77 55 -87 42 -9 66 9 85
64 9 27 23 55 31 62 27 22 91 -7 158 -71 34 -32 79 -69 100 -84 48 -32 101
-35 109 -6 4 15 -10 30 -61 69 -82 61 -105 95 -92 140 22 79 83 137 207 200
120 60 132 47 143 -166 5 -87 16 -181 24 -209 20 -66 76 -139 118 -153 61 -22
149 -24 218 -7 117 30 155 54 218 136 33 42 66 76 78 78 52 8 124 -101 126
-191 1 -42 -5 -62 -30 -102 -43 -71 -48 -92 -22 -100 58 -18 139 46 161 127
10 37 8 52 -11 113 -100 315 -282 506 -546 572 -104 26 -321 24 -507 -5 -81
-13 -152 -20 -157 -17 -6 4 -17 20 -26 37 -15 28 -14 33 8 77 51 99 233 179
428 188 74 4 110 10 123 21 34 30 15 55 -53 66 -24 4 -86 -8 -190 -34z m470
-518 c19 -15 21 -22 11 -39 -14 -27 -43 -37 -87 -28 -42 7 -52 27 -30 60 20
31 73 34 106 7z m-288 -134 c38 -76 84 -136 124 -160 34 -20 46 -48 20 -48
-22 0 -122 48 -139 68 -28 30 -47 89 -47 142 0 27 4 50 8 50 4 0 20 -24 34
-52z m308 -148 c0 -27 -38 -47 -47 -24 -4 11 1 22 12 30 26 19 35 17 35 -6z"/>
<path d="M13919 13579 c-11 -7 -5 -26 34 -104 52 -101 136 -205 168 -205 25 0
49 49 49 99 0 40 -1 41 -42 47 -45 8 -76 34 -101 87 -27 56 -80 94 -108 76z"/>
<path d="M13545 13256 c-11 -69 12 -148 81 -286 56 -113 72 -136 131 -189 38
-34 101 -77 142 -98 68 -33 76 -35 99 -22 39 21 36 32 -14 59 -61 32 -194 157
-249 234 -58 82 -119 209 -136 285 -10 46 -17 61 -30 61 -13 0 -19 -11 -24
-44z"/>
<path d="M12378 12742 c-23 -10 -11 -25 39 -51 30 -15 45 -30 49 -49 10 -39
15 -46 25 -31 14 23 10 105 -6 119 -17 15 -84 22 -107 12z"/>
<path d="M11657 11513 c-4 -3 -7 -26 -7 -49 0 -47 28 -127 84 -244 20 -41 39
-92 43 -113 3 -20 10 -40 16 -44 23 -14 0 189 -36 305 -39 129 -71 175 -100
145z"/>
<path d="M10806 8932 c-3 -6 37 -37 93 -71 138 -85 183 -137 212 -246 34 -129
32 -128 114 -34 125 145 135 184 38 162 -75 -18 -132 17 -178 108 -17 32 -35
52 -61 64 -44 21 -207 34 -218 17z"/>
</g>
</svg>
